<svg id="GeBlod_Logo" data-name="GeBlod Logo" xmlns="http://www.w3.org/2000/svg" width="540.54" height="164.75" viewBox="0 0 540.54 164.75"><defs><style>.cls-1{fill:#b40a3c;}</style></defs><title>GeBlod_LOGOTYP_RGB</title><path class="cls-1" d="M191.6,96.49a15.82,15.82,0,0,1-21.34,15.76l.46-.46,19.92-19.92,6.47-6.47,2.17-2.17,4.89-4.89,1.89-1.89a38,38,0,0,0-5-6.15C192.51,61.72,181.27,57.7,170.21,59a37.87,37.87,0,0,0-9.26,2.35,39.28,39.28,0,0,0-11.15,6.9l-.68.59-.07.06c-.31.28-.61.55-.92.85l0,0a37.84,37.84,0,0,0,53.51,53.51l0,0c.4-.4.79-.82,1.17-1.23l.37-.42.75-.86.41-.5.66-.85.39-.5c.29-.4.58-.8.86-1.21.18-.26.34-.52.51-.79l.34-.54q.28-.45.54-.9l.21-.36a37.63,37.63,0,0,0,3.55-8.66v0q.17-.62.31-1.25l0-.22q.38-1.69.61-3.41c0-.27.07-.54.1-.81s.05-.5.08-.74q.06-.63.09-1.27c0-.11,0-.22,0-.34,0-.55,0-1.1,0-1.66,0-.06,0-.12,0-.18Zm-33.85,3.38a15.85,15.85,0,0,1,20.51-20.51l-1.41,1.41L159.16,98.46Z"/><path class="cls-1" d="M454.21,58.64H438.34a37.84,37.84,0,1,0,37.84,37.84V32.69h-22Zm0,37.84a15.87,15.87,0,1,1-15.87-15.87h15.87Z"/><path class="cls-1" d="M359,58.64a37.84,37.84,0,1,0,37.84,37.84A37.88,37.88,0,0,0,359,58.64Zm0,53.71a15.87,15.87,0,1,1,15.87-15.87A15.89,15.89,0,0,1,359,112.35Z"/><rect class="cls-1" x="294.54" y="32.69" width="21.97" height="100.32"/><path class="cls-1" d="M492.94,102.58a15.87,15.87,0,1,0,15.87,15.87V102.58Z"/><path class="cls-1" d="M277.56,81.14c5.88-4.59,9.32-11.32,9.32-19.92,0-17.77-13.19-28.52-33.11-28.52h-38V133h40.69c20.35,0,33.68-11.61,33.68-29.38C290.17,93.46,285.29,85.72,277.56,81.14ZM237.77,54.21H253c5.64,0,9.59,3.83,9.59,9.3s-3.94,9.3-9.59,9.3H237.77Zm18,57.29h-18V91.76h18c6.08,0,10.16,4,10.16,9.87C265.93,107.35,261.66,111.5,255.77,111.5Z"/><path class="cls-1" d="M90.61,91.76h20a29.14,29.14,0,1,1-7.14-29.51L119,46.71a51.12,51.12,0,1,0,15,36.15V72.81H90.61Z"/></svg>